HIERARCHY
ROOT Hips
{
	OFFSET 0.000000 103.266502 0.000000
	CHANNELS 6 Xposition Yposition Zposition Xrotation Yrotation Zrotation 
	JOINT Spine
	{
		OFFSET -0.002400 12.777504 0.315300
		CHANNELS 3 Xrotation Yrotation Zrotation
		JOINT Spine1
		{
			OFFSET -0.002067 5.816869 0.032633
			CHANNELS 3 Xrotation Yrotation Zrotation
			JOINT Spine1_split
			{
				OFFSET -0.002067 5.816869 0.032633
				CHANNELS 3 Xrotation Yrotation Zrotation
				JOINT Spine2
				{
					OFFSET -0.002067 5.816869 0.032633
					CHANNELS 3 Xrotation Yrotation Zrotation
					JOINT Neck
					{
						OFFSET -0.003700 21.199493 -0.826900
						CHANNELS 3 Xrotation Yrotation Zrotation
						JOINT Head
						{
							OFFSET 0.000000 20.442200 4.834800
							CHANNELS 3 Xrotation Yrotation Zrotation
							JOINT HeadTop_End
							{
								OFFSET 0.000000 34.668396 4.968400
								CHANNELS 3 Xrotation Yrotation Zrotation
								End Site
								{
									OFFSET 0.000000 0.000000 0.000000
								}
							}
						}
					}
					JOINT LeftShoulder
					{
						OFFSET 3.288150 8.794197 -1.372250
						CHANNELS 3 Xrotation Yrotation Zrotation
						JOINT LeftShoulder_split
						{
							OFFSET 3.288150 8.794197 -1.372250
							CHANNELS 3 Xrotation Yrotation Zrotation
							JOINT LeftArm
							{
								OFFSET 11.953299 -2.279007 -0.146200
								CHANNELS 3 Xrotation Yrotation Zrotation
								JOINT LeftForeArm
								{
									OFFSET 18.448900 0.000000 0.000000
									CHANNELS 3 Xrotation Yrotation Zrotation
									JOINT LeftHand
									{
										OFFSET 29.527798 0.000000 0.000000
										CHANNELS 3 Xrotation Yrotation Zrotation
										JOINT LeftHandThumb1
										{
											OFFSET 10.739754 -2.369614 9.225399
											CHANNELS 3 Xrotation Yrotation Zrotation
											JOINT LeftHandThumb2
											{
												OFFSET 4.926170 -2.844131 2.844125
												CHANNELS 3 Xrotation Yrotation Zrotation
												JOINT LeftHandThumb3
												{
													OFFSET 4.614891 -2.664413 2.664409
													CHANNELS 3 Xrotation Yrotation Zrotation
													JOINT LeftHandThumb4
													{
														OFFSET 4.432465 -2.559082 2.559083
														CHANNELS 3 Xrotation Yrotation Zrotation
														End Site
														{
															OFFSET 0.000000 0.000000 0.000000
														}
													}
												}
											}
										}
										JOINT LeftHandIndex1
										{
											OFFSET 26.467674 0.187653 6.405298
											CHANNELS 3 Xrotation Yrotation Zrotation
											JOINT LeftHandIndex2
											{
												OFFSET 8.792900 0.000000 0.000000
												CHANNELS 3 Xrotation Yrotation Zrotation
												JOINT LeftHandIndex3
												{
													OFFSET 10.075203 0.000000 0.000000
													CHANNELS 3 Xrotation Yrotation Zrotation
													End Site
													{
														OFFSET 0.000000 0.000000 0.000000
													}
												}
											}
										}
										JOINT LeftHandMiddle1
										{
											OFFSET 25.764404 0.000000 0.000000
											CHANNELS 3 Xrotation Yrotation Zrotation
											JOINT LeftHandMiddle2
											{
												OFFSET 9.393974 0.000000 0.000000
												CHANNELS 3 Xrotation Yrotation Zrotation
												JOINT LeftHandMiddle3
												{
													OFFSET 10.771950 0.000000 0.000000
													CHANNELS 3 Xrotation Yrotation Zrotation
													End Site
													{
														OFFSET 0.000000 0.000000 0.000000
													}
												}
											}
										}
										JOINT LeftHandRing1
										{
											OFFSET 24.660927 0.144547 -6.225808
											CHANNELS 3 Xrotation Yrotation Zrotation
											JOINT LeftHandRing2
											{
												OFFSET 9.393799 0.000000 0.000000
												CHANNELS 3 Xrotation Yrotation Zrotation
												JOINT LeftHandRing3
												{
													OFFSET 9.928497 0.000000 0.000000
													CHANNELS 3 Xrotation Yrotation Zrotation
													End Site
													{
														OFFSET 0.000000 0.000000 0.000000
													}
												}
											}
										}
										JOINT LeftHandPinky1
										{
											OFFSET 23.655350 0.125290 -12.815412
											CHANNELS 3 Xrotation Yrotation Zrotation
											JOINT LeftHandPinky2
											{
												OFFSET 8.425102 0.000000 0.000000
												CHANNELS 3 Xrotation Yrotation Zrotation
												JOINT LeftHandPinky3
												{
													OFFSET 8.147003 0.000000 0.000000
													CHANNELS 3 Xrotation Yrotation Zrotation
													End Site
													{
														OFFSET 0.000000 0.000000 0.000000
													}
												}
											}
										}
									}
								}
							}
						}
					}
					JOINT RightShoulder
					{
						OFFSET -3.249400 8.794197 -1.372250
						CHANNELS 3 Xrotation Yrotation Zrotation
						JOINT RightShoulder_split
						{
							OFFSET -3.249400 8.794197 -1.372250
							CHANNELS 3 Xrotation Yrotation Zrotation
							JOINT RightArm
							{
								OFFSET -11.953299 -2.279007 -0.146200
								CHANNELS 3 Xrotation Yrotation Zrotation
								JOINT RightForeArm
								{
									OFFSET -18.448900 0.000000 0.000000
									CHANNELS 3 Xrotation Yrotation Zrotation
									JOINT RightHand
									{
										OFFSET -29.527802 0.000000 0.000000
										CHANNELS 3 Xrotation Yrotation Zrotation
										JOINT RightHandThumb1
										{
											OFFSET -10.739754 -2.369614 9.225399
											CHANNELS 3 Xrotation Yrotation Zrotation
											JOINT RightHandThumb2
											{
												OFFSET -4.926170 -2.844131 2.844125
												CHANNELS 3 Xrotation Yrotation Zrotation
												JOINT RightHandThumb3
												{
													OFFSET -4.614891 -2.664413 2.664409
													CHANNELS 3 Xrotation Yrotation Zrotation
													JOINT RightHandThumb4
													{
														OFFSET -4.432465 -2.559082 2.559083
														CHANNELS 3 Xrotation Yrotation Zrotation
														End Site
														{
															OFFSET 0.000000 0.000000 0.000000
														}
													}
												}
											}
										}
										JOINT RightHandIndex1
										{
											OFFSET -26.467674 0.187653 6.405298
											CHANNELS 3 Xrotation Yrotation Zrotation
											JOINT RightHandIndex2
											{
												OFFSET -8.792900 0.000000 0.000000
												CHANNELS 3 Xrotation Yrotation Zrotation
												JOINT RightHandIndex3
												{
													OFFSET -10.075203 0.000000 0.000000
													CHANNELS 3 Xrotation Yrotation Zrotation
													End Site
													{
														OFFSET 0.000000 0.000000 0.000000
													}
												}
											}
										}
										JOINT RightHandMiddle1
										{
											OFFSET -25.764404 0.000000 0.000000
											CHANNELS 3 Xrotation Yrotation Zrotation
											JOINT RightHandMiddle2
											{
												OFFSET -9.393974 0.000000 0.000000
												CHANNELS 3 Xrotation Yrotation Zrotation
												JOINT RightHandMiddle3
												{
													OFFSET -10.771950 0.000000 0.000000
													CHANNELS 3 Xrotation Yrotation Zrotation
													End Site
													{
														OFFSET 0.000000 0.000000 0.000000
													}
												}
											}
										}
										JOINT RightHandRing1
										{
											OFFSET -24.660927 0.144547 -6.225808
											CHANNELS 3 Xrotation Yrotation Zrotation
											JOINT RightHandRing2
											{
												OFFSET -9.393799 0.000000 0.000000
												CHANNELS 3 Xrotation Yrotation Zrotation
												JOINT RightHandRing3
												{
													OFFSET -9.928497 0.000000 0.000000
													CHANNELS 3 Xrotation Yrotation Zrotation
													End Site
													{
														OFFSET 0.000000 0.000000 0.000000
													}
												}
											}
										}
										JOINT RightHandPinky1
										{
											OFFSET -23.655350 0.125290 -12.815412
											CHANNELS 3 Xrotation Yrotation Zrotation
											JOINT RightHandPinky2
											{
												OFFSET -8.425102 0.000000 0.000000
												CHANNELS 3 Xrotation Yrotation Zrotation
												JOINT RightHandPinky3
												{
													OFFSET -8.147003 0.000000 0.000000
													CHANNELS 3 Xrotation Yrotation Zrotation
													End Site
													{
														OFFSET 0.000000 0.000000 0.000000
													}
												}
											}
										}
									}
								}
							}
						}
					}
				}
			}
		}
	}
	JOINT LeftUpLeg
	{
		OFFSET 11.394100 -6.187798 -0.413800
		CHANNELS 3 Xrotation Yrotation Zrotation
		JOINT LeftLeg
		{
			OFFSET 0.430247 -32.302673 3.732800
			CHANNELS 3 Xrotation Yrotation Zrotation
			JOINT LeftFoot
			{
				OFFSET -0.430247 -48.264931 -6.423300
				CHANNELS 3 Xrotation Yrotation Zrotation
				JOINT LeftToeBase
				{
					OFFSET 4.230900 -16.068199 23.438400
					CHANNELS 3 Xrotation Yrotation Zrotation
					JOINT LeftToe_End
					{
						OFFSET 4.510700 0.695400 19.974600
						CHANNELS 3 Xrotation Yrotation Zrotation
						End Site
						{
							OFFSET 0.000000 0.000000 0.000000
						}
					}
				}
			}
		}
	}
	JOINT RightUpLeg
	{
		OFFSET -11.333700 -6.187798 -0.413800
		CHANNELS 3 Xrotation Yrotation Zrotation
		JOINT RightLeg
		{
			OFFSET -0.430392 -32.302628 3.733000
			CHANNELS 3 Xrotation Yrotation Zrotation
			JOINT RightFoot
			{
				OFFSET 0.430392 -48.264973 -6.423500
				CHANNELS 3 Xrotation Yrotation Zrotation
				JOINT RightToeBase
				{
					OFFSET -4.230900 -16.068199 23.438400
					CHANNELS 3 Xrotation Yrotation Zrotation
					JOINT RightToe_End
					{
						OFFSET -4.510700 0.695400 19.974600
						CHANNELS 3 Xrotation Yrotation Zrotation
						End Site
						{
							OFFSET 0.000000 0.000000 0.000000
						}
					}
				}
			}
		}
	}
}
MOTION
Frames: 6
Frame Time: 0.016667
-0.252603 98.394394 0.779373 -5.340173 -7.771175 5.847383 0.569265 1.036235 -3.049895 0.947293 2.037201 -4.377105 0.000000 0.000000 0.000000 0.968933 2.043658 -4.365421 2.884317 1.135687 4.005909 7.888284 9.350187 8.465891 0.000000 0.000000 -0.000000 1.058070 -0.340530 -4.891289 0.000000 0.000000 0.000000 -16.372110 12.814416 -32.934021 0.000013 -24.507077 0.000016 42.987595 -10.562019 -4.600071 -1.540045 3.690184 6.142342 3.946758 7.971405 0.752854 -0.575599 1.586255 2.542373 -0.000000 0.000001 0.000001 -0.000002 0.000010 -0.000000 0.000000 0.000002 -0.000002 -0.000002 0.000000 -0.000003 -0.000000 -0.001920 0.015973 0.000001 0.001921 -0.015981 0.000001 0.000002 -0.000000 -0.000003 0.000010 -0.000001 0.000002 0.000003 -0.000025 -0.000001 0.000001 -0.000002 -0.018090 4.054250 0.511061 -0.018087 -4.054243 -0.511054 -0.000002 -0.000002 -0.000000 0.199127 -5.464830 5.846318 0.000000 0.000000 0.000000 -40.201220 28.677447 7.199777 -0.000015 4.457083 0.000000 36.569041 21.327752 -11.047048 -1.908784 1.147443 -8.502725 4.645034 -8.656808 -0.231331 -1.269823 0.126054 -2.098683 0.000003 0.000001 -0.000000 0.007129 0.315414 -2.588951 0.000002 -0.000005 0.000015 0.000000 -0.000002 -0.000001 0.007130 0.315416 -2.588953 -0.000004 0.000001 0.000019 0.000001 -0.000002 -0.000001 0.007128 0.315418 -2.588953 0.000002 -0.000003 0.000014 0.000000 0.000001 0.000000 0.007128 0.315416 -2.588952 -0.000001 0.000005 0.000066 0.000002 0.000004 0.000000 -31.228936 6.058511 11.421149 24.441303 9.172343 0.777435 29.292253 9.141897 1.679771 -8.150146 0.189616 -5.276677 0.000000 -0.000002 0.000001 -11.117624 -9.175587 14.107223 19.297982 -9.818725 -0.939315 -6.916815 -14.278947 -22.175864 -3.758269 -0.000981 0.389156 0.000000 -0.000002 0.000000 
-0.360665 98.506172 1.744635 -5.490630 -10.669374 6.419374 0.698782 1.220004 -3.363024 1.150021 2.492870 -4.561967 0.000000 0.000000 0.000000 1.175539 2.502169 -4.546987 2.728370 1.302013 3.879430 7.459739 10.036896 8.266647 0.000001 0.000001 0.000000 0.919751 0.306314 -3.868009 0.000000 0.000000 0.000000 -17.993288 11.628147 -29.784146 0.000001 -26.012420 0.000002 42.448823 -8.511056 -6.736302 -1.540045 3.690183 6.142343 3.946760 7.971408 0.752855 -0.575600 1.586257 2.542373 -0.000001 0.000001 0.000001 -0.000001 0.000009 -0.000004 -0.000001 -0.000004 0.000000 -0.000001 -0.000000 0.000002 -0.000003 -0.001918 0.015970 0.000001 0.001917 -0.015985 0.000001 -0.000001 0.000001 -0.000002 0.000011 -0.000003 0.000001 0.000003 -0.000027 -0.000002 0.000001 0.000001 -0.018088 4.054248 0.511056 -0.018091 -4.054243 -0.511060 0.000000 0.000001 -0.000000 0.206929 -5.347460 5.805463 0.000000 0.000000 0.000000 -41.452391 31.404090 7.845451 0.000022 4.254771 0.000002 36.426645 17.698519 -11.018022 -1.940993 0.213053 -8.122627 4.645034 -8.656809 -0.231331 -1.269822 0.126051 -2.098680 0.000002 -0.000002 -0.000000 0.004590 0.253151 -2.077723 0.000002 -0.000009 0.000016 0.000002 0.000001 0.000000 0.004588 0.253153 -2.077727 -0.000002 -0.000002 0.000020 -0.000000 0.000004 0.000001 0.004590 0.253152 -2.077723 0.000002 -0.000009 0.000015 0.000001 -0.000003 -0.000000 0.004591 0.253151 -2.077721 -0.000001 0.000004 0.000067 0.000000 0.000000 0.000002 -30.808234 6.561134 9.553203 21.567886 8.863420 0.831182 33.200218 7.790413 -1.009180 -7.429058 0.479135 -8.484115 -0.000000 0.000002 -0.000000 -10.508007 -8.971681 13.322739 20.757109 -9.709700 -0.867343 -7.654821 -12.808828 -20.776742 -3.990963 -0.000913 0.373558 0.000000 -0.000003 0.000000 
-0.478707 98.613922 2.710058 -5.644896 -13.567846 6.929669 0.828141 1.408756 -3.656644 1.350766 2.961712 -4.730876 0.000000 0.000000 0.000000 1.379869 2.974013 -4.712207 2.584064 1.463159 3.751658 7.038275 10.696998 8.064929 0.000000 0.000000 -0.000000 0.757069 0.956894 -2.838907 0.000000 0.000000 0.000000 -19.446295 10.332251 -26.706627 0.000010 -27.039609 0.000008 42.214138 -6.536514 -9.326117 -1.540047 3.690180 6.142340 3.946759 7.971402 0.752857 -0.575600 1.586255 2.542371 -0.000001 0.000000 -0.000001 -0.000003 0.000008 -0.000003 0.000002 -0.000001 -0.000001 0.000000 0.000002 -0.000000 -0.000002 -0.001924 0.015971 0.000001 0.001923 -0.015982 -0.000001 -0.000001 -0.000001 -0.000003 0.000007 -0.000003 0.000002 0.000003 -0.000030 -0.000000 0.000000 -0.000001 -0.018091 4.054246 0.511061 -0.018089 -4.054239 -0.511060 0.000001 0.000003 0.000001 0.212557 -5.231000 5.754128 0.000000 0.000000 0.000000 -42.739516 34.146516 8.566011 0.000001 4.063296 -0.000001 36.307906 13.991129 -11.057208 -1.951451 -0.743615 -7.734742 4.645031 -8.656805 -0.231332 -1.269823 0.126054 -2.098681 -0.000002 0.000002 -0.000001 0.002571 0.189402 -1.554385 0.000002 -0.000002 0.000017 0.000001 0.000002 0.000001 0.002572 0.189401 -1.554383 -0.000003 -0.000000 0.000020 0.000003 -0.000000 -0.000006 0.002570 0.189404 -1.554387 0.000001 -0.000006 0.000015 0.000001 -0.000001 0.000001 0.002570 0.189404 -1.554386 -0.000001 0.000006 0.000069 0.000001 -0.000001 0.000001 -32.221906 6.811723 7.816479 22.324431 9.009193 0.841348 33.604073 6.742303 -3.458537 -5.405118 0.412058 -6.800158 -0.000000 0.000002 -0.000000 -9.952923 -8.789471 12.477314 22.322469 -9.602519 -0.791978 -8.404679 -11.396197 -19.284011 -4.583075 0.001201 -0.139415 -0.000000 0.000003 -0.000000 
-0.620291 98.715042 3.667001 -5.814491 -16.411720 7.347783 0.958239 1.610794 -3.916597 1.552685 3.454294 -4.875777 0.000000 0.000000 0.000000 1.585066 3.469682 -4.853022 2.463896 1.609704 3.624301 6.649701 11.284551 7.868931 0.000000 0.000000 -0.000000 0.574223 1.603289 -1.815879 0.000000 0.000000 0.000000 -20.697790 9.000522 -23.723484 -0.000002 -27.489800 0.000013 42.273017 -4.912404 -12.211386 -1.540046 3.690184 6.142345 3.946763 7.971403 0.752856 -0.575599 1.586253 2.542369 -0.000001 0.000001 0.000000 -0.000001 0.000012 0.000002 0.000003 0.000000 0.000000 0.000003 0.000000 0.000002 0.000000 -0.001917 0.015979 0.000002 0.001918 -0.015984 -0.000000 0.000003 0.000000 0.000000 0.000010 0.000001 0.000005 -0.000001 -0.000030 0.000002 0.000001 0.000001 -0.018091 4.054255 0.511065 -0.018087 -4.054237 -0.511055 0.000002 0.000001 0.000001 0.215349 -5.122705 5.672776 0.000000 0.000000 0.000000 -43.983973 36.850144 9.221134 0.000007 3.892988 -0.000001 35.960656 10.271112 -10.808901 -1.940593 -1.643849 -7.370414 4.645033 -8.656804 -0.231330 -1.269826 0.126055 -2.098686 0.000000 -0.000002 0.000003 0.001197 0.129397 -1.061774 0.000000 -0.000005 0.000012 0.000003 0.000001 -0.000001 0.001202 0.129387 -1.061776 -0.000003 -0.000002 0.000019 0.000001 -0.000001 0.000002 0.001196 0.129400 -1.061773 0.000001 -0.000005 0.000018 -0.000000 -0.000001 -0.000000 0.001197 0.129398 -1.061774 -0.000001 0.000005 0.000068 -0.000000 0.000001 0.000001 -33.553718 7.191302 5.986150 23.065520 9.187221 0.866931 34.207339 6.055812 -5.835639 -5.487349 0.253486 -3.010609 0.000001 0.000001 -0.000000 -9.401854 -8.637023 11.620791 23.900983 -9.497301 -0.718453 -9.120766 -10.075808 -17.745217 -5.626551 0.028599 -1.186828 -0.000000 0.000001 -0.000000 
-0.849046 98.815849 4.578938 -6.025069 -19.102217 7.549162 1.102415 1.857913 -4.127657 1.780584 4.029431 -4.976539 0.000000 0.000000 0.000000 1.816225 4.047993 -4.948806 2.395713 1.711542 3.497551 6.360600 11.646648 7.705534 -0.000000 -0.000000 0.000000 0.374556 2.240368 -0.806799 0.000000 0.000000 0.000000 -21.745721 7.692721 -20.829160 0.000004 -27.338005 0.000006 42.560507 -3.851471 -15.231573 -1.540043 3.690180 6.142345 3.946762 7.971404 0.752856 -0.575597 1.586253 2.542374 -0.000001 -0.000001 -0.000002 -0.000000 0.000007 -0.000001 0.000002 0.000001 -0.000001 -0.000001 0.000001 -0.000001 -0.000001 -0.001921 0.015977 0.000003 0.001921 -0.015985 -0.000001 -0.000000 0.000000 -0.000001 0.000008 -0.000001 0.000002 0.000000 -0.000029 -0.000001 0.000002 0.000001 -0.018089 4.054247 0.511062 -0.018087 -4.054241 -0.511054 -0.000002 -0.000001 0.000001 0.214939 -5.027856 5.548212 0.000000 0.000000 0.000000 -45.098199 39.487728 9.681376 0.000006 3.811690 0.000001 35.292520 6.579494 -9.972264 -1.915017 -2.423505 -7.055056 4.645032 -8.656805 -0.231332 -1.269824 0.126050 -2.098684 0.000000 0.000002 -0.000000 0.000430 0.077371 -0.634890 0.000003 -0.000005 0.000015 0.000000 0.000002 -0.000002 0.000430 0.077378 -0.634896 -0.000004 -0.000000 0.000017 -0.000000 -0.000003 0.000006 0.000431 0.077370 -0.634888 0.000001 -0.000003 0.000015 -0.000001 0.000002 -0.000001 0.000431 0.077371 -0.634890 -0.000002 0.000004 0.000065 -0.000000 0.000000 -0.000000 -34.910026 7.763240 4.067646 23.679622 9.410962 0.921266 35.309332 6.098308 -8.132059 -6.039040 -0.084634 0.860219 -0.000000 0.000000 -0.000000 -8.683033 -8.621271 10.932206 25.225565 -9.394000 -0.650731 -9.588851 -8.956362 -16.301129 -6.974308 0.092892 -2.139025 -0.000000 0.000001 -0.000000 
-1.271383 98.947342 5.385950 -6.300564 -21.522493 7.341852 1.281040 2.195793 -4.287751 2.069222 4.782977 -4.995581 0.000000 0.000000 0.000000 2.108387 4.805057 -4.960763 2.414553 1.724738 3.360780 6.257614 11.547421 7.606876 0.000000 -0.000000 -0.000001 0.158925 2.867088 0.188197 0.000000 0.000000 0.000000 -22.609926 6.437971 -17.983268 0.000001 -26.652752 -0.000007 42.927445 -3.493425 -18.124341 -1.540044 3.690180 6.142344 3.946760 7.971405 0.752854 -0.575598 1.586258 2.542372 0.000001 0.000001 0.000000 0.000000 0.000009 -0.000000 0.000004 -0.000004 0.000000 0.000000 0.000000 0.000001 -0.000001 -0.001919 0.015975 0.000001 0.001921 -0.015982 -0.000000 -0.000000 0.000000 -0.000002 0.000011 0.000000 0.000001 0.000001 -0.000029 0.000000 0.000001 0.000002 -0.018089 4.054249 0.511062 -0.018087 -4.054244 -0.511059 0.000002 -0.000001 0.000001 0.211108 -4.950960 5.370193 0.000000 0.000000 0.000000 -45.996362 42.033913 9.824716 -0.000000 3.849756 -0.000001 34.344773 2.991026 -8.265491 -1.884997 -3.025500 -6.811450 4.645033 -8.656804 -0.231330 -1.269824 0.126053 -2.098680 0.000000 -0.000001 0.000001 0.000100 0.037180 -0.305051 0.000001 -0.000005 0.000010 -0.000001 -0.000000 -0.000003 0.000101 0.037176 -0.305043 -0.000002 0.000003 0.000016 0.000002 0.000000 0.000004 0.000100 0.037179 -0.305049 0.000002 -0.000004 0.000015 -0.000002 -0.000000 0.000003 0.000100 0.037180 -0.305051 -0.000002 0.000003 0.000066 -0.000000 -0.000001 0.000003 -36.399670 8.694684 1.986716 24.158073 9.705756 1.030640 37.239551 7.597593 -10.264828 -7.394931 -0.604888 4.804146 0.000000 0.000000 -0.000000 -7.192947 -8.948714 10.881028 25.442132 -9.384266 -0.618957 -9.706793 -7.959292 -15.941335 -8.319871 0.125181 -2.261451 0.000000 0.000002 -0.000000 
